# xmcd
#
# Track frame offsets: 
#        150
#        23056
#        42473
#        64901
#        90211
#        108618
#        126597
#        160985
#        185754
#        205860
#        221804
#        242213
#
# Disc length: 3609 seconds
#
# Revision: 1
# Processed by: cddbd v1.5PL3 Copyright (c) Steve Scherf et al.
# Submitted via: ExactAudioCopy v0.95a3
#
DISCID=b40e170c
DTITLE=Sir Roland Hanna and Carrie Smith - I've Got A Right To Sing The 
DTITLE=Blues
DYEAR=2002
DGENRE=Blues
TTITLE0=Accentuate The Positive
TTITLE1=When The Sun Comes Out
TTITLE2=Happiness Is A Thing Called Joe
TTITLE3=Ill Wind
TTITLE4=I've Got The World On A String
TTITLE5=Let's Fall In Love
TTITLE6=I Gotta Right To Sing The Blues
TTITLE7=Blues In The Night
TTITLE8=Stormy Weather
TTITLE9=It's Only A Paper Moon
TTITLE10=That Old Black Magic
TTITLE11=Over The Rainbow
EXTD=Submitted by jaZZnko\njanko.hrovat@kovinotehna-mki.si
EXTT0=
EXTT1=
EXTT2=
EXTT3=
EXTT4=
EXTT5=
EXTT6=
EXTT7=
EXTT8=
EXTT9=
EXTT10=
EXTT11=
PLAYORDER=
